<svg width="1673" height="864" viewBox="0 0 1673 864" fill="none" xmlns="http://www.w3.org/2000/svg">
<rect width="512" height="512" transform="translate(581 153)" fill="#0F0A1E"/>
<rect width="512" height="512" transform="translate(581 153)" fill="black" fill-opacity="0.2"/>
<path d="M960.139 176.047C960.864 175.959 961.268 175.935 962.005 175.956C993.504 176.843 1021.8 182.894 1044.15 205.458C1056.67 218.089 1064.4 232.221 1068.11 249.141C1072.95 271.241 1072.87 296.422 1072.92 319.028L1072.95 377.415C1072.97 427.341 1073.19 477.428 1072.65 527.353C1072.28 561.556 1067.96 588.791 1040.5 613.423C1028.59 624.291 1013.79 631.901 997.681 635.451C977.505 639.832 953.254 639.557 932.466 639.737C910.935 639.962 889.405 640.035 867.875 639.967C818.071 639.951 768.148 640.181 718.38 639.45C683.215 638.961 653.825 634.613 628.48 609.553C597.581 579.009 600.26 541.295 600.123 501.704L600.058 439.025C600.052 389.521 599.678 339.578 600.557 290.123C601.163 255.898 605.779 225.787 633.405 201.349C663.948 174.328 703.308 175.547 742.548 175.425C758.981 175.375 776.846 175.05 793.148 175.533C826.81 174.962 861.732 175.522 895.501 175.467C913.146 175.438 943.385 174.575 960.139 176.047Z" fill="url(#paint0_linear_1_2)"/>
<path d="M741.697 172.011L871.743 172.035C894.317 172.033 917.65 172.336 940.163 172C944.561 172.595 956.571 172.558 961.59 172.697C986.51 173.246 1010.7 176.741 1031.45 190.951C1078.12 222.911 1072.74 278.963 1072.75 328.191L1072.86 412.3V502.028C1072.73 522.06 1073.17 544.673 1069.99 564.246C1067.71 578.333 1061.99 591.71 1053.3 603.284C1020.18 646.773 973.691 642.946 923.495 643.05L839.283 643.097L748.682 643.033C726.754 642.946 702.522 643.27 680.962 640.16C651.277 635.639 625.042 617.701 611.451 592.017C597.13 564.939 599.235 531.322 599.078 501.663L599 416.37L599.145 322.998C599.271 300.304 598.71 277.425 602.179 254.993C604.477 237.668 610.281 223.678 620.88 209.783C650.535 170.913 696.363 172.616 741.323 172.071C741.449 172.051 741.57 172.031 741.697 172.011Z" fill="url(#paint1_linear_1_2)"/>
<path d="M884.272 429.162C895.863 423.201 906.462 404.356 910.228 392.458C912.385 385.459 913.674 378.247 914.072 370.966C915.985 374.047 917.928 376.014 922.301 374.398C923.257 380.049 920.144 394.428 918.094 399.765C901.792 442.249 862.278 457.591 818.546 454.545L818.142 454.893C819.812 454.978 822.741 454.79 823.667 455.634C821.279 457.689 813.633 457.026 810.134 456.901C799.368 455.753 789.114 455.311 778.29 454.991C761.203 457.216 750.153 461.461 738.764 474.184L737.225 473.746L736.589 472.374C733.791 472.626 733.025 478.426 730.898 479.134C730.755 478.267 730.63 477.58 730.535 476.71C719.295 494.569 724.47 537.956 724.101 560.153C743.445 560.309 765.635 560.293 784.932 559.545C785.882 556.486 785.33 537.734 785.252 533.37C785.324 527.276 785.977 505.839 784.783 501.137L782.876 501.237L781.759 505.381C781.498 500.908 782.662 496.649 781.682 492.355C781.171 490.12 779.008 490.566 776.977 490.431C779.513 489.813 781.622 489.936 784.237 489.917C787.296 490.093 801.757 490.828 803.741 491.384C802.862 494.23 803.337 513.937 803.355 518.533C803.509 537.333 803.462 556.134 803.206 574.931L802.565 574.92C801.495 575.291 713.306 576.146 707.728 574.971L707.757 553.103C707.419 535.326 707.52 516.637 708.072 498.873C708.625 481.309 719.105 462.579 733.405 451.441C751.442 437.392 771.879 434.547 794.443 436.512C790.873 439.085 788.461 437.676 785.122 439.26C790.546 440.275 792.661 438.966 798.846 440.935C823.644 442.077 865.16 450.324 884.272 429.162Z" fill="#14C6D2"/>
<path d="M707.757 553.103C707.419 535.326 707.52 516.637 708.072 498.873C708.625 481.309 719.105 462.579 733.405 451.441C751.442 437.392 771.879 434.547 794.443 436.512C790.873 439.085 788.461 437.676 785.122 439.26C790.546 440.276 792.661 438.966 798.846 440.935C778.295 440.121 764.316 438.641 746.095 449.605C741.639 452.287 736.209 454.805 732.371 458.466C720.008 470.265 713.182 485.843 712.427 502.164C712.391 503.025 712.368 503.886 712.368 504.748C711.168 507.639 710.627 569.239 711.453 572.237L710.71 572.079C709.813 568.266 710.122 564.778 709.593 561.083C709.124 557.782 708.417 557.352 708.304 553.695L707.757 553.103Z" fill="#22D5EF"/>
<path d="M784.237 489.917C787.296 490.093 801.757 490.828 803.741 491.384C802.862 494.23 803.337 513.937 803.355 518.533C803.509 537.333 803.462 556.134 803.206 574.931L802.565 574.92C801.495 575.291 713.306 576.146 707.728 574.971C712.273 574.121 729.787 574.695 735.704 574.639C744.717 574.723 753.771 574.521 762.778 574.2C766.77 574.059 773.234 574.504 776.804 573.609L776.495 573.204C770.162 573.204 763.039 573.339 756.783 573.047C763.918 572.113 774.891 573.952 782.181 572.158C786.185 571.877 794.449 572.237 798.751 572.31C798.448 556.093 798.424 539.875 798.679 523.658C798.602 519.526 798.121 507.435 798.852 503.854L802.725 502.857C801.097 501.131 789.043 501.608 784.783 501.137L782.876 501.237L781.759 505.381C781.498 500.908 782.662 496.649 781.682 492.355C781.171 490.12 779.008 490.566 776.977 490.431C779.513 489.813 781.623 489.936 784.237 489.917Z" fill="#22D5EF"/>
<path d="M784.237 489.917C787.296 490.093 801.757 490.828 803.741 491.384C802.862 494.23 803.337 513.937 803.355 518.533C803.509 537.333 803.462 556.134 803.206 574.931L802.565 574.92C802.149 564.936 802.713 553.029 802.511 542.607C802.701 529.408 802.309 516.049 802.725 502.857C801.097 501.131 789.043 501.608 784.783 501.137L782.876 501.237L781.759 505.381C781.498 500.908 782.662 496.649 781.682 492.355C781.171 490.12 779.009 490.566 776.977 490.431C779.514 489.813 781.623 489.936 784.237 489.917Z" fill="#0F8C95"/>
<path d="M798.679 523.658C798.602 519.526 798.121 507.435 798.852 503.854L802.725 502.857C802.309 516.049 802.701 529.408 802.511 542.607C800.634 536.932 800.711 520.527 800.307 513.736L800.064 513.785C799.802 517.118 799.624 520.456 799.535 523.797L798.679 523.658Z" fill="#22E8EF"/>
<path d="M707.757 553.103L708.304 553.695C708.417 557.352 709.124 557.782 709.593 561.082C710.122 564.778 709.813 568.266 710.71 572.079L711.453 572.237C710.627 569.239 711.168 507.639 712.368 504.748C712.843 512.638 712.582 522.073 712.564 530.068L712.35 571.674C735.074 571.905 759.647 571.393 782.181 572.158C774.891 573.952 763.918 572.113 756.783 573.047C763.039 573.339 770.162 573.204 776.495 573.204L776.804 573.609C773.234 574.504 766.77 574.059 762.778 574.2C753.771 574.521 744.717 574.723 735.704 574.639C729.787 574.695 712.273 574.121 707.728 574.971L707.757 553.103Z" fill="#1BC9ED"/>
<path d="M730.535 476.71C730.916 476.004 731.605 474.812 732.163 474.241C746.933 459.123 752.945 453.469 774.701 451.524C777.006 451.691 779.626 451.989 781.89 451.781L781.735 452.202C779.08 452.413 776.585 452.456 773.923 452.514L778.29 454.991C761.203 457.216 750.153 461.461 738.764 474.184L737.225 473.747L736.589 472.374C733.791 472.626 733.025 478.426 730.898 479.134C730.755 478.267 730.63 477.58 730.535 476.71Z" fill="#22D5EF"/>
<path d="M774.701 451.524C781.498 450.883 815.19 452.478 818.546 454.545L818.142 454.893C819.812 454.978 822.741 454.79 823.667 455.634C821.279 457.689 813.633 457.026 810.134 456.901C799.368 455.753 789.114 455.311 778.29 454.991L773.923 452.514C776.585 452.456 779.08 452.413 781.735 452.202L781.89 451.781C779.626 451.989 777.006 451.691 774.701 451.524Z" fill="#22E8EF"/>
<path d="M944.015 349.288C949.843 344.033 955.481 338.794 960.811 333.072C963.151 342.842 967.274 366.541 965.1 376.246C964.328 390.431 962.135 400.043 957.632 413.595C953.075 424.37 948.78 433.956 941.175 443.226C937.753 447.678 935.252 450.582 931.408 454.714C923.382 462.698 913.377 471.291 903.105 476.618C894.764 481.531 880.446 487.674 870.821 489.651C850.99 495.854 824.101 494.539 803.741 491.384C801.757 490.829 787.296 490.093 784.237 489.917C781.765 488.175 776.002 489.289 772.949 489.153C772.545 489.135 770.774 491.412 768.612 491.606L768.885 490.811C777.654 484.531 785.3 488.356 796.475 486.894L797.117 486.808L797.996 486.474C796.214 485.94 793.885 485.702 792.001 485.548C752.054 482.265 762.433 503.341 760.342 528.937C758.464 527.272 761.114 527.075 759.379 524.447C759.017 524.498 757.009 524.653 756.67 524.606C756.706 523.117 756.973 521.57 756.118 520.406L755.339 520.716L755.434 523.238C754.08 524.83 752.903 525.811 750.699 525.452C750.658 525.293 750.379 524.431 750.384 524.306C751.323 511.1 747.265 497.184 756.724 485.982C768.41 472.141 781.735 477.77 796.232 476.247L796.873 476.175C807.401 476.786 820.233 477.666 830.731 478.729C837.159 479.38 859.195 475.732 859.51 475.821C875.17 475.318 904.335 459.356 915.023 448.452C922.117 441.365 930.452 432.59 935.401 424.043C937.207 420.933 944.502 406.605 944.514 403.604C944.609 400.086 947.58 388.92 947.176 387.41C951.795 366.355 949.832 349.288 947.176 349.288L944.93 356.491L944.015 349.288Z" fill="#1CD2B4"/>
<path d="M944.015 349.288C949.843 344.033 955.481 338.794 960.811 333.072C963.151 342.842 967.274 366.541 965.1 376.246L964.132 376.317C963.175 383.248 961.755 390.115 959.884 396.876L958.428 396.87L957.953 397.671L957.109 396.636C960.133 381.27 960.49 368.688 959.284 353.049C958.957 348.78 957.828 348.01 957.614 343.654C956.895 343.723 950.758 349.62 949.903 350.506C949.416 366.406 952.214 387.934 944.514 403.604C944.609 400.086 947.58 388.92 947.176 387.41C945.447 380.875 947.794 360.062 945.423 355.334L944.93 356.491L944.015 349.288Z" fill="#32FB9D"/>
<path d="M876.258 484.18C881.272 484.395 890.546 478.129 892.655 479.226C891.205 483.431 873.816 484.343 870.822 489.651C850.99 495.854 824.101 494.539 803.741 491.384C801.757 490.828 787.296 490.093 784.237 489.917C781.765 488.175 776.002 489.289 772.949 489.153C772.545 489.135 770.774 491.412 768.612 491.606L768.885 490.81C777.654 484.531 785.3 488.356 796.475 486.894L797.117 486.808L797.996 486.474C799.208 486.947 809.011 488.049 810.888 488.306C833.993 491.479 854.157 491.676 876.258 484.18Z" fill="#2BE1CC"/>
<path d="M957.109 396.636L957.953 397.671L958.428 396.87L959.884 396.876C961.755 390.115 963.175 383.248 964.132 376.317L965.1 376.246C964.328 390.431 962.135 400.043 957.632 413.595C953.075 424.37 948.78 433.956 941.175 443.226C937.753 447.678 935.252 450.582 931.408 454.714C928.723 454.883 927.677 454.87 924.98 454.708C931.604 449.096 936.613 442.38 941.241 435.27C942.007 434.518 943.706 431.379 944.449 430.295C952.024 419.286 953.812 409.137 957.109 396.636Z" fill="#3AEDB9"/>
<path d="M896.897 475.251C909.456 468.732 915.035 464.122 924.98 454.708C927.677 454.87 928.723 454.883 931.408 454.714C923.382 462.698 913.377 471.291 903.105 476.617C894.764 481.531 880.446 487.674 870.821 489.651C873.816 484.343 891.205 483.431 892.655 479.226C890.546 478.129 881.272 484.395 876.258 484.18C883.203 481.769 890.29 478.38 896.897 475.251Z" fill="#2CE6BB"/>
<path d="M841.39 474.474C850.36 474.811 854.222 475.508 862.973 473.534L863.027 473.388C870.661 471.123 877.202 468.595 884.623 465.905C889.15 464.263 896.356 459.272 900.58 457.985C892.637 465.427 870.453 473.331 859.51 475.821C859.195 475.732 837.16 479.38 830.731 478.729C820.233 477.666 807.401 476.786 796.873 476.175L796.232 476.247C781.735 477.769 768.41 472.141 756.724 485.982C747.265 497.184 751.323 511.1 750.385 524.306C750.379 524.431 750.658 525.293 750.699 525.452C752.903 525.811 754.08 524.83 755.434 523.238L755.339 520.716L756.118 520.406C756.973 521.57 756.706 523.117 756.67 524.605C757.009 524.653 759.017 524.497 759.379 524.447C761.114 527.075 758.464 527.272 760.342 528.937C762.433 503.341 752.054 482.265 792.002 485.548C793.885 485.702 796.214 485.94 797.996 486.474L797.117 486.808L796.475 486.894C785.3 488.356 777.654 484.531 768.885 490.81L768.612 491.606C770.774 491.412 772.545 489.135 772.949 489.153C776.002 489.289 781.765 488.175 784.237 489.917C781.623 489.936 779.514 489.813 776.977 490.431C765.968 493.475 765.261 502.019 765.356 511.291C765.463 521.104 765.504 530.939 765.51 540.752L744.83 540.767C744.806 530.61 743.98 502.156 746.392 493.639C747.669 489.19 750.022 485.084 753.266 481.647C766.966 467.225 788.33 470.605 806.438 472.274C818.166 473.356 829.567 474.973 841.39 474.474Z" fill="#22E8EF"/>
<path d="M749.089 536.824C749.095 528.073 749.19 518.715 749.149 510.032C749.006 477.603 767.881 473.671 796.873 476.175L796.232 476.247C781.735 477.77 768.41 472.141 756.724 485.982C747.265 497.184 751.323 511.1 750.384 524.306C750.379 524.431 750.658 525.293 750.699 525.452C752.903 525.811 754.08 524.83 755.434 523.238L755.339 520.716L756.118 520.406C756.973 521.57 756.706 523.117 756.67 524.606C757.009 524.653 759.017 524.498 759.379 524.447C761.114 527.075 758.464 527.272 760.342 528.937C762.433 503.341 752.054 482.265 792.001 485.548C793.885 485.702 796.214 485.94 797.996 486.474L797.117 486.808C780.161 485.43 761.292 483.715 761.132 505.928C761.061 516.188 761.227 526.561 761.28 536.829L749.089 536.824Z" fill="#1BC9ED"/>
<path d="M908.167 361.095C910.104 363.209 917.999 372.24 920.097 372.731L923.067 373.238C924.659 375.566 921.017 393.513 921.249 398.047C922.057 396.537 922.497 395.52 923.132 393.934L923.572 393.954C923.81 395.083 923.911 396.262 924.273 397.288C917.982 418.737 902.856 436.893 882.288 447.676C859.242 459.908 835.704 460.908 810.134 456.901C813.633 457.026 821.279 457.689 823.667 455.634C822.741 454.79 819.812 454.978 818.142 454.893L818.546 454.545C862.278 457.592 901.792 442.249 918.094 399.765C920.144 394.428 923.257 380.049 922.301 374.398C917.928 376.014 915.985 374.047 914.072 370.967C913.674 378.247 912.385 385.459 910.228 392.459C906.462 404.357 895.863 423.201 884.272 429.162C884.533 425.287 894.217 418.8 896.79 415C899.647 410.774 901.691 405.429 904.917 401.67L904.792 400.894L904.751 400.871C899.226 405.239 898.97 414.011 891.793 416.085C906.587 397.256 908.969 383.718 908.167 361.095Z" fill="#2CE6BB"/>
<path d="M730.535 476.71C730.63 477.581 730.755 478.267 730.898 479.134C733.025 478.426 733.791 472.626 736.589 472.374L737.225 473.747L738.764 474.184C735.354 479.319 730.886 486.625 729.811 492.635C727.256 506.875 728.783 521.898 728.308 536.299C728.23 538.883 728.076 554.506 728.759 556.104C732.888 556.871 743.172 556.935 747.919 557.088C758.767 557.439 770.471 558.779 781.165 557.663L776.371 557.348C778.836 557.22 781.308 557.136 783.773 557.095C783.898 555.619 783.987 551.885 784.652 550.859C784.765 553.754 784.854 556.649 784.932 559.545C765.635 560.293 743.445 560.309 724.101 560.153C724.47 537.956 719.295 494.569 730.535 476.71Z" fill="#1BC9ED"/>
<path d="M944.93 356.491L945.423 355.334C947.794 360.062 945.447 380.875 947.176 387.409C947.58 388.92 944.609 400.086 944.514 403.604C944.502 406.605 937.207 420.933 935.401 424.043C930.452 432.59 922.117 441.364 915.023 448.452C904.335 459.355 875.17 475.318 859.51 475.821C870.453 473.331 892.637 465.427 900.58 457.985C896.356 459.272 889.15 464.263 884.623 465.905C877.202 468.595 870.661 471.123 863.027 473.388L862.973 473.534C854.222 475.508 850.36 474.811 841.389 474.474C870.114 473.114 897.134 461.15 916.657 441.147C940.522 416.5 946.415 388.929 944.93 356.491Z" fill="#3AEDB9"/>
<path d="M891.793 416.085C898.97 414.011 899.226 405.239 904.751 400.871L904.792 400.894L904.917 401.67C901.691 405.429 899.647 410.774 896.79 415C894.217 418.8 884.533 425.287 884.272 429.162C865.16 450.324 823.644 442.077 798.846 440.935C792.661 438.966 790.546 440.276 785.122 439.26C788.461 437.676 790.873 439.085 794.443 436.512C806.682 435.554 824.558 440.232 838.365 439.383C861.981 437.93 875.604 432.114 891.793 416.085Z" fill="#2BE1CC"/>
<path d="M782.876 501.237L784.783 501.137C785.977 505.839 785.324 527.276 785.252 533.37C785.33 537.734 785.882 556.486 784.932 559.545C784.854 556.649 784.765 553.754 784.652 550.859C783.987 551.885 783.898 555.619 783.773 557.095C781.308 557.136 778.836 557.22 776.371 557.348L781.165 557.663C770.471 558.779 758.767 557.439 747.919 557.088C743.172 556.935 732.888 556.871 728.759 556.104C732.864 555.548 743.297 555.793 747.735 555.802C759.094 555.843 770.453 555.829 781.813 555.759C781.735 539.674 782.531 521.213 781.759 505.382L782.876 501.237Z" fill="#22D5EF"/>
<path d="M782.876 501.237L784.783 501.137C785.977 505.839 785.324 527.276 785.253 533.37C784.712 531.986 784.676 530.34 784.546 528.843C784.403 530.526 783.957 532.541 783.643 534.237C783.037 527.835 784.462 504.774 782.876 501.237Z" fill="#22E8EF"/>
<path d="M920.096 372.731L928.64 364.461C928.343 374.737 927.927 387.481 924.273 397.288C923.911 396.262 923.81 395.083 923.572 393.954L923.132 393.934C922.497 395.52 922.057 396.537 921.249 398.047C921.017 393.513 924.659 375.566 923.067 373.238L920.096 372.731Z" fill="#32FB9D"/>
<path d="M701.613 452.144L701.423 388.477C701.405 372.914 700.609 353.717 703.467 338.759C706.063 325.772 710.858 313.267 717.666 301.729C734.408 272.757 762.723 251.352 796.266 242.306C834.282 232.159 879.127 248.194 912.545 265.958C917.104 269.981 919.414 280.31 912.545 265.958C922.959 275.15 928.736 281.886 901.493 262.669L904.696 263.203L888.315 254.276L912.545 265.958L938.057 279.473C937.898 282.641 925.48 276.059 928.356 277.896C929.717 278.99 920.962 277.891 921.978 276.448C929.053 278.494 930.899 276.431 938.057 279.473C935.628 281.816 937.805 276.606 937.567 280.31C938.113 281.049 925.046 291.201 925.301 292.022C922.788 296.044 925.682 282.873 925.301 286.23C929.24 287.785 920.996 291.277 923.149 295.273L918.543 291.412C911.848 284.645 931.79 273.552 917.562 290.446L898.128 263.899L921.377 287.454C922.488 286.746 937.757 279.473 923.149 295.273L914.006 279.781C917.636 281.113 921.487 294.308 922.959 292.86C923.393 291.697 924.431 295.273 922.468 294.79C921.85 291.194 880.525 269.89 877.822 268.243L893.755 275.483L910.693 285.677L895.484 276.687L896.466 277.252L912.165 286.585C907.514 283.674 882.825 269.683 877.822 268.243L904.696 280.98L893.755 276.114C894.997 275.277 875.921 268.232 877.822 268.243C862.269 261.318 847.377 257.026 830.053 257.003C801.381 257.131 773.951 268.093 753.853 287.454C737.087 303.372 724.985 326.062 722.621 348.492C721.587 358.281 721.985 371.665 721.997 381.75L722.015 432.436C712.503 439.007 708.326 443.389 701.613 452.144Z" fill="#22E8EF"/>
<path d="M987.61 253.95C991.917 254.451 1000.47 264.392 1003.8 267.212C1002.96 269.086 1001.24 269.594 999.96 271.271C992.569 278.89 1007.46 263.123 1003.31 267.948C995.069 277.126 999.446 272.9 965.526 305.732C928.245 341.815 951.065 319.618 943.532 327.131C938.232 332.412 932 336.808 926.41 341.815C922.643 345.19 919.661 348.994 915.359 351.807C907.072 343.727 905.186 340.833 895.195 332.037C893.49 329.249 886.224 324.172 885.071 321.043C885.742 318.997 893.253 312.966 895.195 311.872C897.57 311.821 913.527 323.603 913.527 329.395C920.886 318.293 929.226 314.768 923.83 318.147C926.9 318.147 908.225 334.287 911.564 330.697C917.848 323.939 912.23 329.447 917.678 323.939C923.126 318.431 974.797 266.273 980.25 260.708C982.128 258.786 985.188 255.995 987.119 253.95C987.47 253.581 985.608 255.095 987.61 253.95Z" fill="#1CFE79"/>
<path d="M829.935 277.538C847.402 275.128 870.328 281.877 884.819 291.327C880.113 295.864 875.485 300.465 870.922 305.129C860.205 299.494 848.869 296.456 836.565 296.427C817.685 296.516 799.618 303.731 786.369 316.473C762.896 338.61 764.946 358.952 764.994 386.914L765.071 422.302C757.151 424.013 752.303 425.543 744.824 428.281L744.693 384.917C744.669 354.08 743.921 334.12 766.764 308.577C782.537 290.587 805.315 279.393 829.935 277.538Z" fill="#22E8EF"/>
<path d="M964.72 436.512L964.827 575.218C958.511 575.702 949.891 575.454 943.385 575.432C943.296 560.829 942.554 540.236 943.433 526.185C942.94 506.24 943.326 484.873 943.38 464.843C954.24 454.021 956.681 449.14 964.72 436.512Z" fill="#1CD2B4"/>
<path d="M964.72 436.512L964.827 575.218L958.868 574.622C959.872 574.071 960.127 573.806 961.001 573.069C961.268 571.776 961.458 571.23 960.941 569.936C960.668 566.466 960.775 562.849 960.745 559.362C960.525 531.938 960.995 504.378 959.414 476.999C959.201 473.39 960.222 453.427 959.052 451.869C957.074 452.416 957.828 451.898 956.64 453.379L957.181 454.137C957.234 457.256 950.158 464.238 947.746 466.802C948.15 474.134 947.437 481.05 947.241 488.357C946.986 497.737 946.903 507.158 946.802 516.541C945.619 518.348 946.493 521.544 945.417 525.214C945.001 526.635 944.627 528.069 944.3 529.513C944.259 527.204 944.669 527.505 943.433 526.185C942.94 506.24 943.326 484.873 943.38 464.843C954.24 454.021 956.681 449.14 964.72 436.512Z" fill="#3AEDB9"/>
<path d="M943.433 526.185C944.669 527.505 944.259 527.204 944.3 529.513C944.627 528.069 945.001 526.635 945.417 525.214C946.493 521.544 945.619 518.348 946.802 516.542C947.33 523.13 946.98 534.03 946.914 540.858C946.807 550.99 947.122 562.207 946.653 572.192C949.933 572.242 957.775 572.687 960.312 571.427L960.941 569.936C961.458 571.23 961.268 571.776 961.001 573.069C960.127 573.806 959.872 574.071 958.868 574.622L964.827 575.218C958.511 575.702 949.891 575.454 943.385 575.432C943.296 560.829 942.554 540.236 943.433 526.185Z" fill="#2CE6BB"/>
<path d="M924.386 481.67L925.871 480.538L926.673 480.924C927.404 488.647 926.899 504.749 926.905 513.231L926.857 575.381L905.779 575.393L905.636 536.344C905.624 530.47 905.327 520.403 905.903 514.673C905.386 510.174 905.755 497.704 905.767 492.618L917.809 486.183C918.427 485.371 923.18 482.449 924.386 481.67Z" fill="url(#paint2_linear_1_2)"/>
<path d="M924.386 481.67L925.871 480.538L926.673 480.924C927.404 488.647 926.899 504.749 926.905 513.231L926.857 575.381L905.779 575.393L905.636 536.344C905.624 530.47 905.327 520.403 905.903 514.673C906.545 518.755 906.313 530.139 906.331 534.789C907.109 530.239 907.793 511.829 908.517 509.995L909.183 510.409L908.713 513.617L909.551 513.938C910.674 530.912 909.284 553.787 909.712 571.776C913.93 571.798 918.492 572.029 922.734 572.164C922.728 557.898 921.79 538.326 923.239 524.702C923.334 538.318 923.946 558.105 923.263 571.286C921.73 572.732 922.01 572.293 919.461 572.777C921.243 573.368 923.091 573.328 924.731 572.49C925.063 564.654 925.396 552.656 924.921 545.108C924.416 537.031 929.483 485.817 924.386 481.67Z" fill="#2CE6BB"/>
<path d="M905.767 492.618L917.809 486.183C916.122 489.989 910.163 490.873 908.898 493.234C912.124 492.386 915.89 489.093 918.362 488.921C917.589 490.463 912.456 493.429 910.514 494.783C909.236 502.088 910.264 507.783 909.551 513.938L908.713 513.617L909.183 510.409L908.517 509.995C907.793 511.829 907.109 530.239 906.331 534.789C906.313 530.139 906.545 518.755 905.903 514.673C905.386 510.174 905.755 497.704 905.767 492.618Z" fill="#3AEDB9"/>
<path d="M867.999 506.364C875.099 504.704 882.109 502.718 889.001 500.414L889.197 567.804L889.054 575.426H868.047C867.803 556.756 867.809 538.084 868.059 519.415C867.916 515.066 867.898 510.714 867.999 506.364Z" fill="#1CD2B4"/>
<path d="M867.999 506.364C875.099 504.704 882.109 502.718 889.001 500.414L889.197 567.804C888.68 570.094 888.134 570.504 886.613 572.366L885.9 572.321C885.757 570.223 885.662 568.356 885.092 566.308C883.874 558.471 884.955 507.248 883.737 505.433C880.179 506.47 876.59 507.699 873.067 508.861L872.74 517.078C872.42 517.878 872.117 518.683 871.831 519.494C871.124 516.371 870.97 514.645 870.726 511.45C870.851 511.196 869.36 528.657 869.223 530.116L868.879 530.355C868.837 527.325 868.986 522.167 868.059 519.415C867.916 515.066 867.898 510.714 867.999 506.364Z" fill="#2CE6BB"/>
<path d="M868.059 519.415C868.986 522.166 868.837 527.325 868.879 530.355L869.223 530.116C869.36 528.657 870.851 511.196 870.726 511.45C870.97 514.645 871.124 516.371 871.831 519.494C872.117 518.683 872.42 517.877 872.74 517.078C872.972 519.766 872.426 522.183 872.402 524.843C872.283 538.28 871.522 552.434 872.235 565.802L872.936 566.061L873.121 567.129C876.46 567.652 880.654 566.966 883.987 566.297L884.688 567.135L885.092 566.308C885.662 568.356 885.757 570.223 885.9 572.321L886.613 572.366C888.134 570.504 888.68 570.094 889.197 567.804L889.054 575.426H868.047C867.803 556.756 867.809 538.084 868.059 519.415Z" fill="#2BE1CC"/>
<path d="M872.235 565.802L872.936 566.061L873.121 567.129C876.459 567.652 880.654 566.966 883.987 566.297L884.688 567.135C884.64 569.739 885.009 570.206 883.5 571.697C880.547 572.771 875.527 572.153 871.98 572.096L872.235 565.802Z" fill="#14C6D2"/>
<path d="M826.424 363.372L830.613 355.428C828.498 350.689 828.729 352.749 829.163 349.116C828.491 348.457 829.541 348.293 828.65 348.013C829.054 335.945 826.097 320.46 827.47 308.483C829.573 306.746 835.033 306.254 837.552 307.381C839.667 308.982 840.819 310.062 840.783 312.735C840.581 326.309 841.698 341.973 840.683 355.428C848.323 351.107 864.346 333.042 872.016 333.938C873.982 335.246 873.335 334.615 874.362 336.836C874.261 339.472 873.578 340.087 871.469 341.939C863.502 348.949 854.157 355.733 846.327 362.79C844.568 378.071 827.369 376.343 826.424 363.372Z" fill="#2CE6BB"/>
<path d="M826.424 363.372L827.178 365.873C825.063 361.134 828.729 352.749 829.163 349.116C828.491 348.457 828.491 348.516 827.6 348.236C828.004 336.168 826.097 320.46 827.47 308.483C829.573 306.746 835.033 306.254 837.552 307.381C839.667 308.982 840.819 310.062 840.783 312.735C840.581 326.309 841.698 341.973 840.682 355.428L839.928 355.576C838.152 351.425 840.457 338.921 836.191 336.611C829.442 341.264 840.047 357.375 828.866 358.653C827.327 360.074 827.101 361.416 826.424 363.372Z" fill="#3AEDB9"/>
<path d="M826.353 363.458L827.178 364.834C825.063 360.096 827.178 352.284 829.092 349.203C828.421 348.544 828.56 359.804 827.669 359.525C828.073 347.456 826.027 320.547 827.399 308.57C829.502 306.833 834.962 306.341 837.481 307.468C835.859 307.984 833.257 308.671 832.901 310.335C829.888 324.285 834.184 341.827 831.534 356.057C831.445 356.541 829.342 358.291 828.795 358.739C827.257 360.16 827.031 361.503 826.353 363.458Z" fill="#0E0E27"/>
<path d="M830.309 525.389L851.394 525.362V575.466C847.515 575.511 832.906 576.023 830.458 574.813C829.733 571.911 830.161 543.438 830.191 539.115C830.149 534.539 830.191 529.963 830.309 525.389Z" fill="url(#paint3_linear_1_2)"/>
<path d="M830.309 525.389L851.394 525.362V575.466C847.515 575.511 832.906 576.023 830.458 574.813L830.862 573.221C832.929 574.695 846.998 574.324 850.075 574.082C850.485 566.173 850.081 535.038 848.911 527.91C847.146 526.407 836.251 527.467 832.52 527.228L831.836 527.182C831.723 533.924 831.224 541.046 830.933 547.836C830.874 544.817 830.88 542.079 830.191 539.115C830.149 534.539 830.191 529.963 830.309 525.389Z" fill="#2BE1CC"/>
<path d="M834.955 530.011L846.332 530.072C846.612 544.49 847.301 557.316 846.624 571.821L834.807 571.837C834.563 557.895 834.617 543.95 834.955 530.011Z" fill="#14C6D2"/>
<path d="M885.46 361.229C889.227 361.093 897.265 360.292 897.39 365.311C896.499 367.217 896.273 367.293 894.574 368.716C890.54 368.85 883.209 369.759 882.608 364.845C883.375 362.836 883.714 362.717 885.46 361.229Z" fill="#3AEDB9"/>
<path d="M885.205 362.998C888.508 362.885 892.37 362.28 894.924 364.006C895.566 365.814 895.459 365.091 894.794 367.168C891.74 367.224 887.742 367.679 885.312 366.131C884.545 364.326 884.67 365.084 885.205 362.998Z" fill="#2CE6BB"/>
<path d="M778.367 361.243C782.532 361.131 789.197 360.211 790.178 365.008C789.584 366.992 789.287 367.114 787.706 368.655C783.916 368.784 776.175 369.591 775.61 364.847C776.377 362.827 776.632 362.745 778.367 361.243Z" fill="#22D5EF"/>
<path d="M834.593 415.348C835.852 415.335 836.755 415.572 837.979 415.812C841.799 418.409 841.122 425.431 838.87 428.689C836.952 428.847 836.963 428.81 835.056 428.433C830.987 425.657 831.842 418.641 834.593 415.348Z" fill="#2BE1CC"/>
<defs>
<linearGradient id="paint0_linear_1_2" x1="849.876" y1="643.914" x2="825.015" y2="170.737" gradientUnits="userSpaceOnUse">
<stop stop-color="#2C2A4E"/>
<stop offset="1" stop-color="#473F73"/>
</linearGradient>
<linearGradient id="paint1_linear_1_2" x1="840.475" y1="643.714" x2="831.621" y2="170.937" gradientUnits="userSpaceOnUse">
<stop stop-color="#0C1A2D"/>
<stop offset="1" stop-color="#342D6C"/>
</linearGradient>
<linearGradient id="paint2_linear_1_2" x1="900.62" y1="533.838" x2="935.021" y2="524.847" gradientUnits="userSpaceOnUse">
<stop stop-color="#10BCA2"/>
<stop offset="1" stop-color="#35F5C1"/>
</linearGradient>
<linearGradient id="paint3_linear_1_2" x1="854.884" y1="532.536" x2="827.686" y2="568.546" gradientUnits="userSpaceOnUse">
<stop stop-color="#30E8CA"/>
<stop offset="1" stop-color="#1CD4DA"/>
</linearGradient>
</defs>
</svg>
